<svg width="12" height="21" viewBox="0 0 12 21" fill="none" xmlns="http://www.w3.org/2000/svg">
<path d="M11.2621 17.9335L4.31776 10.9892L11.2621 4.04479C11.4278 3.87909 11.5593 3.68237 11.6489 3.46587C11.7386 3.24937 11.7848 3.01733 11.7848 2.78299C11.7848 2.54865 11.7386 2.31661 11.6489 2.10011C11.5593 1.88361 11.4278 1.68689 11.2621 1.52119C11.0964 1.35549 10.8997 1.22405 10.6832 1.13437C10.4667 1.04469 10.2347 0.998535 10.0003 0.998535C9.76599 0.998535 9.53395 1.04469 9.31745 1.13437C9.10095 1.22405 8.90423 1.35549 8.73853 1.52119L0.523413 9.73631C0.357493 9.90189 0.225859 10.0986 0.136045 10.3151C0.0462305 10.5316 0 10.7637 0 10.9981C0 11.2325 0.0462305 11.4646 0.136045 11.6811C0.225859 11.8976 0.357493 12.0943 0.523413 12.2599L8.73853 20.475C9.43655 21.173 10.5641 21.173 11.2621 20.475C11.9422 19.777 11.9601 18.6315 11.2621 17.9335Z" fill="#E2E2E2"/>
</svg>
