<svg width="28" height="28" viewBox="0 0 28 28" fill="none" xmlns="http://www.w3.org/2000/svg">
<path d="M14 16.981L3.56654 27.4144C3.17617 27.8048 2.67934 28 2.07604 28C1.47275 28 0.975914 27.8048 0.585547 27.4144C0.195179 27.0241 -3.8147e-06 26.5272 -3.8147e-06 25.924C-3.8147e-06 25.3207 0.195179 24.8238 0.585547 24.4335L11.019 14L0.585547 3.56654C0.195179 3.17617 -3.8147e-06 2.67934 -3.8147e-06 2.07605C-3.8147e-06 1.47275 0.195179 0.975918 0.585547 0.58555C0.975914 0.195183 1.47275 0 2.07604 0C2.67934 0 3.17617 0.195183 3.56654 0.58555L14 11.019L24.4335 0.58555C24.8238 0.195183 25.3207 0 25.924 0C26.5272 0 27.0241 0.195183 27.4144 0.58555C27.8048 0.975918 28 1.47275 28 2.07605C28 2.67934 27.8048 3.17617 27.4144 3.56654L16.981 14L27.4144 24.4335C27.8048 24.8238 28 25.3207 28 25.924C28 26.5272 27.8048 27.0241 27.4144 27.4144C27.0241 27.8048 26.5272 28 25.924 28C25.3207 28 24.8238 27.8048 24.4335 27.4144L14 16.981Z" fill="#111111"/>
</svg>
